<?xml version="1.0" encoding="utf-8"?>
<!-- Generator: Adobe Illustrator 21.0.0, SVG Export Plug-In . SVG Version: 6.00 Build 0)  -->
<svg version="1.1" id="Layer_1" xmlns="http://www.w3.org/2000/svg" xmlns:xlink="http://www.w3.org/1999/xlink" x="0px" y="0px"
	 viewBox="0 0 50 50" style="enable-background:new 0 0 50 50;" xml:space="preserve">
<style type="text/css">
	.st0{fill:#575757;}
	.st1{fill:#8EDBA6;}
	.st2{fill:#EFC211;}
</style>
<g>
	<path class="st0" d="M43.5,0L6.9,0C3.1,0,0,3.1,0,6.9V50h37.9V17.4l1.7-1.1l3.2,1.6l3.2-1.6l4,2V6.9C50,3.2,47.1,0.2,43.5,0z
		 M36.3,6.9v41.5H1.6V6.9C1.6,4,4,1.6,6.9,1.6h31.9C37.2,2.9,36.3,4.8,36.3,6.9z M48.4,15.6L46,14.4L42.7,16l-3.3-1.6l-1.6,1V6.9
		c0-2.9,2.4-5.2,5.2-5.2c2.9,0,5.2,2.4,5.2,5.2L48.4,15.6L48.4,15.6z"/>
	<polygon class="st1" points="24,17.5 27.4,14 30.9,17.5 32,16.4 28.6,12.9 32,9.4 30.9,8.3 27.4,11.8 24,8.3 22.8,9.4 26.3,12.9 
		22.8,16.4 	"/>
	<polygon class="st2" points="15.1,10.2 13.9,9.1 8.2,15.6 7.1,14.1 5.8,15 8,18.3 	"/>
	<rect x="4" y="20.2" class="st0" width="12.9" height="1.6"/>
	<rect x="4" y="24.2" class="st0" width="12.9" height="1.6"/>
	<rect x="4" y="28.2" class="st0" width="12.9" height="1.6"/>
	<rect x="4" y="32.3" class="st0" width="12.9" height="1.6"/>
	<rect x="4" y="36.3" class="st0" width="12.9" height="1.6"/>
	<rect x="4" y="40.3" class="st0" width="6.5" height="1.6"/>
	<rect x="21" y="20.2" class="st0" width="12.9" height="1.6"/>
	<rect x="21" y="24.2" class="st0" width="12.9" height="1.6"/>
	<rect x="21" y="28.2" class="st0" width="12.9" height="1.6"/>
	<rect x="21" y="32.3" class="st0" width="9.7" height="1.6"/>
</g>
</svg>
