<?xml version="1.0" encoding="utf-8"?>
<!-- Generator: Adobe Illustrator 21.0.0, SVG Export Plug-In . SVG Version: 6.00 Build 0)  -->
<svg version="1.1" id="Layer_1" xmlns="http://www.w3.org/2000/svg" xmlns:xlink="http://www.w3.org/1999/xlink" x="0px" y="0px"
	 viewBox="0 0 54 50" style="enable-background:new 0 0 54 50;" xml:space="preserve">
<style type="text/css">
	.st0{fill:#575757;}
	.st1{fill:#EFC211;}
	.st2{fill:#8EDBA6;}
</style>
<g>
	<path class="st0" d="M52,43.1L52,43.1V16.3c0-1.9-1.5-3.5-3.5-3.5h-4.2c0-0.1,0-0.2-0.1-0.2l-0.7,0.2h-3.6v-1.4L28.8,5.9l-14.7,5.5
		v1.5h-4l-0.4-0.1c0,0,0,0.1,0,0.1H5.4c-1.9,0-3.5,1.5-3.5,3.5v26.7H0.3v3.5c0,1.9,1.5,3.5,3.5,3.5h46.6c1.9,0,3.5-1.5,3.5-3.5v-3.5
		H52z M29.6,8.3l7.3,3.7l-7.3,2.8V8.3z M29.6,16.5l8.6-3.2v9.4l-8.6-4.3V16.5z M36.9,24l-10.8,4v-7.2l2.5-1L36.9,24z M26.1,19v-1.2
		l1.7-0.6v1.2L26.1,19z M27.9,8.1v7.2l-2.5,1l-8.2-4.1L27.9,8.1z M15.8,13.4l8.6,4.3v1.9l-8.6,3.2L15.8,13.4z M24.4,21.5v6.4
		l-7.3-3.7L24.4,21.5z M25.2,30.2l14.7-5.5v-6.6h3.5c0,0.8-0.1,1.6-0.2,2.4l1.7,0.3c0.1-0.9,0.2-1.8,0.2-2.7h1.7v21.6H7.2V18.1h6.9
		v6.6L25.2,30.2z M3.7,16.3c0-1,0.8-1.7,1.7-1.7h3.8c-0.1,0.3-0.1,0.5-0.1,0.8l1.7,0.3c0.1-0.3,0.1-0.7,0.2-1h3.1v1.7H5.4v25h43.1
		v-25h-8.6v-1.7H43c0.1,0.3,0.1,0.6,0.2,0.9l1.7-0.3c0-0.2-0.1-0.5-0.1-0.7h3.8c1,0,1.7,0.8,1.7,1.7v26.7H29.6v1.7h-5.2v-1.7H3.7
		V16.3z M52,46.5L52,46.5c0,1-0.8,1.7-1.7,1.7H3.7c-1,0-1.7-0.8-1.7-1.7v-1.7h20.7c0,1,0.8,1.7,1.7,1.7h5.2c1,0,1.7-0.8,1.7-1.7H52
		V46.5z"/>
	<path class="st1" d="M16.7,5.3l-1.1-1.3c-0.7,0.6-1.4,1.2-2,1.8L15,7C15.5,6.4,16.1,5.8,16.7,5.3z"/>
	<path class="st1" d="M21,2.8l-0.6-1.6c-0.8,0.3-1.7,0.7-2.4,1.2l0.9,1.5C19.5,3.5,20.2,3.1,21,2.8z"/>
	<path class="st1" d="M13.4,8.9l-1.4-1c-0.5,0.7-1,1.5-1.4,2.3l1.6,0.7C12.6,10.3,13,9.5,13.4,8.9z"/>
	<path class="st1" d="M43.3,10.1c-0.4-0.8-0.9-1.6-1.4-2.3l-1.4,1c0.5,0.7,0.9,1.4,1.2,2.1L43.3,10.1z"/>
	<path class="st2" d="M10.6,18.1l-1.7,0c0,0.9,0.1,1.8,0.2,2.7l1.7-0.3C10.7,19.7,10.6,18.9,10.6,18.1z"/>
	<path class="st1" d="M39,6.9l1.3-1.2c-0.6-0.7-1.3-1.3-2-1.8l-1.1,1.4C37.8,5.7,38.4,6.3,39,6.9z"/>
	<path class="st1" d="M36,2.4c-0.8-0.4-1.6-0.8-2.4-1.2l-0.6,1.6c0.8,0.3,1.5,0.7,2.2,1.1L36,2.4z"/>
	<path class="st1" d="M31,0.4c-0.9-0.2-1.8-0.3-2.7-0.4l-0.1,1.7c0.8,0.1,1.6,0.2,2.4,0.4L31,0.4z"/>
	<path class="st1" d="M25.7,1.7L25.6,0c-0.9,0.1-1.8,0.2-2.7,0.4l0.4,1.7C24.1,1.9,24.9,1.8,25.7,1.7z"/>
	<path class="st2" d="M38.3,32.2l-1.1-1.3c-0.6,0.5-1.3,1-2,1.4l0.9,1.5C36.9,33.3,37.6,32.8,38.3,32.2z"/>
	<path class="st2" d="M33.6,34.9L33,33.3c-0.8,0.3-1.5,0.5-2.3,0.7l0.4,1.7C31.9,35.5,32.8,35.3,33.6,34.9z"/>
	<path class="st2" d="M42,28.3l-1.4-1c-0.5,0.7-1,1.3-1.5,1.9l1.3,1.2C40.9,29.7,41.5,29,42,28.3z"/>
	<path class="st2" d="M44.3,23.4l-1.6-0.5c-0.2,0.8-0.5,1.5-0.9,2.3l1.6,0.7C43.7,25.1,44.1,24.3,44.3,23.4z"/>
	<path class="st2" d="M23.4,34.1c-0.8-0.2-1.6-0.4-2.3-0.7L20.4,35c0.8,0.3,1.7,0.6,2.6,0.8L23.4,34.1z"/>
	<path class="st2" d="M28.4,36.1l-0.1-1.7c-0.8,0.1-1.6,0.1-2.5,0l-0.1,1.7c0.4,0,0.9,0,1.3,0C27.5,36.2,27.9,36.2,28.4,36.1z"/>
	<path class="st2" d="M18.8,32.3c-0.7-0.4-1.4-0.9-2-1.4l-1.1,1.3c0.7,0.6,1.5,1.1,2.2,1.5L18.8,32.3z"/>
	<path class="st2" d="M12,28.3c0.5,0.7,1.1,1.5,1.7,2.1l1.3-1.2c-0.6-0.6-1.1-1.2-1.5-1.9L12,28.3z"/>
	<path class="st2" d="M11.3,22.9l-1.6,0.5c0.3,0.9,0.6,1.7,1,2.5l1.6-0.8C11.9,24.5,11.6,23.7,11.3,22.9z"/>
</g>
</svg>
