<?xml version="1.0" encoding="utf-8"?>
<!-- Generator: Adobe Illustrator 21.0.0, SVG Export Plug-In . SVG Version: 6.00 Build 0)  -->
<svg version="1.1" id="Layer_1" xmlns="http://www.w3.org/2000/svg" xmlns:xlink="http://www.w3.org/1999/xlink" x="0px" y="0px"
	 viewBox="0 0 48 50" style="enable-background:new 0 0 48 50;" xml:space="preserve">
<style type="text/css">
	.st0{fill:#535353;}
	.st1{fill:#EFC211;}
	.st2{fill:#8EDBA6;}
</style>
<g>
	<path class="st0" d="M5.9,25.9c0-0.4,0-1.6,0.9-1.9c0.9-0.3,1.7,0.5,1.9,0.7c0.3,0.3,0.3,0.7,0,1c-0.3,0.3-0.7,0.3-1,0
		c-0.1-0.1-0.2-0.2-0.3-0.3c0,0.1-0.1,0.3-0.1,0.5c-0.1,1.8,1.4,2.4,1.4,2.4C9,28.5,9.2,28.7,9.2,29c0.4,5,4.4,6.7,6.2,6.7
		s5.8-1.6,6.2-6.7c0-0.3,0.2-0.5,0.5-0.6c0.1,0,1.5-0.6,1.4-2.4c0-0.3,0-0.4-0.1-0.5c-0.1,0.1-0.2,0.2-0.3,0.3c-0.3,0.3-0.7,0.3-1,0
		c-0.3-0.3-0.3-0.7,0-1c0.2-0.2,1-1,1.9-0.7c0.9,0.3,0.9,1.5,0.9,1.9c0.1,2.2-1.2,3.2-1.9,3.6c-0.6,5.2-4.8,7.6-7.6,7.6
		s-7-2.3-7.6-7.6C7.1,29.1,5.8,28.1,5.9,25.9z"/>
	<path class="st0" d="M15.4,40.5c0.2,0,2-0.4,2-2.2h-2h-2C13.4,40.1,15.2,40.5,15.4,40.5z"/>
	<path class="st1" d="M16.7,40.8c-0.2,0-0.4,0-0.5,0.1c-0.3,0.2-0.6,0.3-0.8,0.3c-0.1,0-0.4-0.1-0.8-0.3c-0.2-0.1-0.3-0.1-0.5-0.1
		c-0.2,0-0.3,0.1-0.5,0.3c-0.3,0.4-1.7,7.6-1.7,7.7c-0.1,0.4,0.2,0.8,0.6,0.8c0.4,0.1,0.8-0.2,0.8-0.6c0.2-1.3,1-4.9,1.3-6.5
		c0.3,0.1,0.6,0.2,0.6,0.2c0.1,0,0.1,0,0.2,0c0,0,0.3,0,0.6-0.2c0.4,1.6,1.1,5.2,1.4,6.5c0.1,0.3,0.4,0.6,0.7,0.6c0,0,0.1,0,0.1,0
		c0.4-0.1,0.6-0.4,0.6-0.8c0-0.1-1.4-7.3-1.7-7.7C17.1,40.9,16.9,40.8,16.7,40.8z"/>
	<path class="st0" d="M6.6,46.7c-0.4,0-0.7,0.3-0.7,0.7v1.5c0,0.4,0.3,0.7,0.7,0.7c0.4,0,0.7-0.3,0.7-0.7v-1.5
		C7.3,47,7,46.7,6.6,46.7z"/>
	<path class="st0" d="M9.2,19.9c-0.7,0.8-1.1,1.8-1.2,2.8c-0.1,0.4,0.2,0.7,0.6,0.8c0,0,0.1,0,0.1,0c0.4,0,0.7-0.3,0.7-0.6
		c0.1-0.8,0.4-1.5,0.9-2.1c0.3-0.3,0.2-0.8-0.1-1C9.9,19.5,9.4,19.6,9.2,19.9z"/>
	<path class="st0" d="M21,23.5c0,0.4,0.3,0.7,0.7,0.7c0.4,0,0.7-0.3,0.7-0.7c0-4.1-3-5.2-4.7-5.2h-6.5c-0.4,0-0.7,0.3-0.7,0.7
		s0.3,0.7,0.7,0.7h6.5C18.1,19.7,21,19.9,21,23.5z"/>
	<path class="st0" d="M23.4,21.9C23.4,21.9,23.5,21.9,23.4,21.9c0.5-0.1,0.8-0.4,0.7-0.8c-0.5-4.1-4-5.1-5.8-5.1h-6.1
		c-0.4,0-0.7,0.3-0.7,0.7s0.3,0.7,0.7,0.7h6.1c0.2,0,3.9,0,4.4,3.8C22.8,21.7,23.1,21.9,23.4,21.9z"/>
	<path class="st0" d="M47.6,0H0.8C0.5,0,0.1,0.3,0.1,0.7v37.1c0,0.4,0.3,0.7,0.7,0.7h4.3C2.7,40.4,0,43.6,0,48.9
		c0,0.4,0.3,0.7,0.7,0.7s0.7-0.3,0.7-0.7c0-7.2,5.4-10,7.4-10.9l0.1,1.7c0,0.2,0.1,0.5,0.3,0.6c0.1,0.1,0.2,0.1,0.4,0.1
		c0.1,0,0.2,0,0.3-0.1l2.4-1.1c0.4-0.2,0.5-0.6,0.3-0.9c-0.2-0.4-0.6-0.5-0.9-0.3l-1.4,0.7l-0.2-2.8c0-0.4-0.4-0.7-0.7-0.7
		c-0.4,0-0.7,0.4-0.7,0.7l0,0.6c-0.3,0.1-0.8,0.3-1.3,0.6c0,0,0,0,0,0H1.6V1.4h45.4v35.7H34.4c2.3-4.8,1.8-10.6,1.8-10.9
		c0-0.4-0.3-0.6-0.7-0.6H32c-0.4,0-0.7,0.3-0.7,0.7c0,3.6-1,6.3-2.9,7.9c-2.2,1.8-5.2,1.8-6.4,1.6c-0.1-0.3-0.3-0.5-0.6-0.6
		c-0.4,0-0.7,0.3-0.7,0.7l-0.2,2.8l-1.3-0.6c-0.4-0.2-0.8,0-0.9,0.3c-0.2,0.4,0,0.8,0.3,0.9l2.3,1.1c0.1,0,0.2,0.1,0.3,0.1
		c0.1,0,0.3,0,0.4-0.1c0.2-0.1,0.3-0.3,0.3-0.6l0.1-2.6c1.5,0.1,4.7,0.2,7.3-2c2.1-1.7,3.3-4.5,3.4-8.3h2.1c0.1,2.1,0,8.5-3.5,12.3
		c-1.7,1.9-4.1,2.9-7.1,2.9c-0.4,0-0.7,0.3-0.7,0.7s0.3,0.7,0.7,0.7c3.4,0,6.1-1.1,8.2-3.3c0.5-0.5,0.9-1.1,1.3-1.7h3.5v10.7
		c0,0.4,0.3,0.7,0.7,0.7s0.7-0.3,0.7-0.7V38.5h1.8v10.7c0,0.4,0.3,0.7,0.7,0.7c0.4,0,0.7-0.3,0.7-0.7V38.5h5.9
		c0.4,0,0.7-0.3,0.7-0.7V0.7C48.4,0.3,48,0,47.6,0z"/>
	<path class="st0" d="M24.2,44.4c-0.4,0-0.7,0.3-0.7,0.7v3.8c0,0.4,0.3,0.7,0.7,0.7c0.4,0,0.7-0.3,0.7-0.7v-3.8
		C25,44.8,24.6,44.4,24.2,44.4z"/>
	<path class="st0" d="M21.3,5.8c0.4,0,0.7-0.3,0.7-0.7c0-0.4-0.3-0.7-0.7-0.7H8.6c-0.4,0-0.7,0.3-0.7,0.7c0,0.4,0.3,0.7,0.7,0.7
		H21.3z"/>
	<path class="st0" d="M4.9,7.9c0,0.4,0.3,0.7,0.7,0.7h15.7c0.4,0,0.7-0.3,0.7-0.7c0-0.4-0.3-0.7-0.7-0.7H5.6
		C5.2,7.2,4.9,7.6,4.9,7.9z"/>
	<path class="st0" d="M5.6,11.5h15.7c0.4,0,0.7-0.3,0.7-0.7c0-0.4-0.3-0.7-0.7-0.7H5.6c-0.4,0-0.7,0.3-0.7,0.7
		C4.9,11.2,5.2,11.5,5.6,11.5z"/>
	<path class="st0" d="M5.6,14.3h15.7c0.4,0,0.7-0.3,0.7-0.7c0-0.4-0.3-0.7-0.7-0.7H5.6c-0.4,0-0.7,0.3-0.7,0.7
		C4.9,14,5.2,14.3,5.6,14.3z"/>
	<path class="st2" d="M45.3,6.4c0.3-0.3,0.3-0.7,0.1-1c-0.3-0.3-0.7-0.3-1-0.1l-7.7,6.5l-4-4.2c-0.2-0.3-0.7-0.4-1-0.1l-4.8,4.1
		c-0.3,0.2-0.4,0.7-0.2,1c0.2,0.3,0.7,0.4,1,0.2L32,9l4.1,4.3c0.1,0.2,0.3,0.2,0.5,0.3c0,0,0,0,0.1,0c0.2,0,0.3-0.1,0.5-0.2
		L45.3,6.4z"/>
	<path class="st0" d="M32.9,13.6l-0.2,5.2c0.3,0,0.6,0,0.8,0c0.8,0,3.1,0,3.1,2.3v1c0,1.7-1.4,3.1-3.1,3.1c-1.7,0-3.1-1.4-3.1-3.1
		v-1c0-0.9,0.4-1.4,0.8-1.8l0.3-5.7c0-0.4,0.4-0.7,0.7-0.7C32.6,12.9,33,13.2,32.9,13.6z"/>
	<path class="st0" d="M33.5,20.2c-1.7,0-1.7,0.5-1.7,0.9v1c0,0.9,0.8,1.7,1.7,1.7c0.9,0,1.7-0.8,1.7-1.7v-1
		C35.2,20.6,35.2,20.2,33.5,20.2z"/>
	<path class="st0" d="M15.5,26.2v3.6h-0.9c-0.4,0-0.7,0.3-0.7,0.7c0,0.4,0.3,0.7,0.7,0.7h1.6c0.4,0,0.7-0.3,0.7-0.7v-4.3
		c0-0.4-0.3-0.7-0.7-0.7C15.8,25.5,15.5,25.9,15.5,26.2z"/>
</g>
</svg>
